<?xml version="1.0" standalone="no"?>
<!DOCTYPE svg PUBLIC "-//W3C//DTD SVG 20010904//EN"
 "http://www.w3.org/TR/2001/REC-SVG-20010904/DTD/svg10.dtd">
<svg version="1.0" xmlns="http://www.w3.org/2000/svg"
 width="2560.000000pt" height="492.000000pt" viewBox="0 0 2560.000000 492.000000"
 preserveAspectRatio="xMidYMid meet">

<g transform="translate(0.000000,492.000000) scale(0.100000,-0.100000)"
fill="#00000" stroke="none">
<path d="M18836 4909 c-222 -29 -459 -131 -658 -284 -45 -35 -84 -62 -85 -61
-1 1 -9 45 -17 98 -25 166 -27 168 -243 168 -157 0 -163 -1 -190 -24 l-28 -24
-3 -1816 c-2 -1981 -5 -1874 53 -1896 15 -6 112 -10 216 -10 l191 0 29 29 29
29 0 637 0 636 58 -45 c394 -309 947 -348 1338 -94 211 138 378 368 475 658
65 196 82 317 83 590 1 252 -11 356 -60 553 -111 444 -371 730 -749 826 -145
37 -301 47 -439 30z m192 -444 c269 -64 437 -278 499 -633 24 -136 24 -518 0
-654 -62 -358 -214 -563 -472 -635 -72 -20 -296 -28 -381 -14 -145 25 -351
111 -485 202 l-59 40 0 737 0 738 63 41 c142 93 317 162 475 188 102 17 267
12 360 -10z"/>
<path d="M21465 4910 c-245 -22 -480 -70 -658 -134 -120 -42 -145 -58 -163
-101 -19 -47 -19 -234 0 -280 21 -50 46 -52 187 -11 279 79 468 108 719 108
146 0 188 -3 253 -21 143 -38 224 -99 272 -206 39 -88 47 -143 52 -392 6 -271
11 -253 -69 -229 -85 26 -290 56 -458 66 -414 26 -711 -61 -920 -270 -152
-152 -221 -327 -224 -565 -3 -334 135 -577 399 -705 145 -70 248 -93 415 -93
296 1 583 106 852 313 l26 20 6 -27 c3 -16 8 -50 11 -78 10 -76 24 -113 52
-135 23 -18 40 -20 185 -20 l160 0 29 30 30 29 -4 1038 c-3 1037 -3 1038 -25
1122 -78 295 -291 469 -642 525 -120 20 -355 27 -485 16z m450 -1584 c61 -9
133 -22 160 -29 l50 -12 3 -267 2 -268 -62 -46 c-35 -26 -108 -69 -163 -95
-197 -94 -364 -134 -537 -127 -99 4 -113 7 -182 42 -146 72 -217 217 -203 414
15 219 132 342 377 397 84 19 398 14 555 -9z"/>
<path d="M945 4894 c-461 -71 -759 -319 -850 -707 -17 -74 -4 -117 41 -135 16
-6 140 -23 277 -38 282 -30 283 -30 310 48 9 24 24 66 33 93 26 71 120 164
199 195 50 20 78 24 170 25 133 0 187 -17 257 -83 74 -69 91 -123 96 -314 2
-87 1 -158 -2 -158 -46 0 -489 -56 -590 -75 -410 -76 -655 -233 -794 -510 -88
-176 -114 -426 -66 -638 88 -386 398 -586 847 -548 268 23 410 88 635 289 41
37 76 61 81 56 4 -5 35 -47 69 -95 68 -96 199 -225 237 -235 43 -11 72 4 157
78 46 39 140 120 209 179 70 60 129 116 133 125 14 37 2 67 -77 186 -46 68
-91 149 -101 179 -30 94 -36 210 -36 789 1 584 -4 662 -41 780 -36 113 -77
179 -170 272 -74 74 -101 93 -190 137 -182 88 -346 121 -589 120 -85 -1 -195
-7 -245 -15z m532 -1681 c-5 -230 -13 -277 -72 -401 -44 -93 -133 -188 -213
-227 -84 -42 -199 -47 -273 -13 -30 14 -69 40 -88 59 -77 78 -114 220 -93 362
40 275 262 416 671 425 l73 2 -5 -207z"/>
<path d="M7539 4895 c-466 -73 -762 -315 -854 -700 -20 -85 -11 -118 37 -140
27 -12 455 -65 521 -65 30 0 64 44 82 106 23 81 55 133 115 187 79 71 141 91
280 92 106 0 119 -2 172 -28 71 -35 133 -103 154 -171 18 -56 33 -356 18 -356
-32 0 -476 -54 -549 -66 -318 -55 -518 -144 -676 -303 -130 -130 -201 -270
-234 -458 -37 -214 0 -457 96 -620 55 -93 165 -195 261 -242 134 -66 217 -83
398 -83 313 0 510 76 724 282 l84 81 61 -88 c70 -103 214 -248 256 -259 16 -4
41 -3 55 3 42 16 440 363 446 390 9 34 -8 71 -71 159 -65 91 -95 146 -121 224
-16 50 -18 118 -24 735 -6 657 -7 683 -28 760 -38 137 -85 219 -181 316 -73
73 -101 93 -191 137 -181 88 -346 122 -590 121 -85 -1 -194 -7 -241 -14z m528
-1677 c-4 -138 -10 -224 -22 -268 -39 -158 -139 -297 -257 -360 -51 -27 -77
-34 -139 -38 -193 -11 -311 107 -326 328 -14 200 75 367 238 447 115 57 268
89 433 92 l79 1 -6 -202z"/>
<path d="M3962 4880 c-229 -42 -397 -178 -498 -404 -16 -36 -32 -66 -36 -66
-5 0 -8 83 -8 185 0 260 17 249 -361 243 -239 -3 -256 -7 -278 -55 -8 -17 -11
-424 -11 -1334 l0 -1311 29 -29 29 -29 277 0 c314 0 326 3 344 68 7 24 11 320
11 857 0 498 4 846 10 885 36 229 133 346 300 358 174 12 274 -62 324 -243 19
-67 20 -110 23 -965 2 -623 7 -902 14 -916 21 -40 48 -44 335 -44 l276 0 29
29 29 29 0 789 c0 790 6 956 36 1063 30 107 99 187 201 232 97 43 260 21 331
-45 25 -23 56 -78 76 -132 7 -20 12 -328 16 -973 l5 -944 29 -24 28 -25 289 3
c285 3 289 3 311 26 l23 23 3 1022 c3 1070 1 1144 -40 1277 -26 84 -46 122
-103 197 -79 106 -212 192 -362 235 -101 29 -294 31 -393 5 -211 -56 -368
-185 -467 -381 l-35 -69 -44 83 c-58 107 -101 166 -172 232 -67 62 -153 110
-237 132 -73 20 -260 29 -333 16z"/>
<path d="M12468 4875 c-597 -94 -971 -679 -945 -1480 10 -294 62 -524 166
-740 94 -193 193 -320 333 -425 183 -138 377 -201 626 -201 250 0 443 63 633
206 425 319 612 984 467 1664 -61 286 -198 546 -378 715 -234 220 -559 314
-902 261z m277 -520 c57 -10 105 -37 153 -89 49 -53 75 -109 103 -216 66 -255
77 -796 23 -1083 -50 -265 -179 -409 -366 -410 -159 -1 -260 88 -327 290 -55
163 -66 277 -66 663 1 321 2 352 24 450 54 250 149 373 308 400 48 8 72 7 148
-5z"/>
<path d="M15382 4879 c-71 -12 -167 -45 -220 -76 -108 -63 -235 -220 -297
-368 -16 -36 -32 -65 -36 -65 -5 0 -10 95 -11 211 l-3 212 -28 21 c-27 20 -43
21 -250 24 -257 4 -300 0 -333 -33 l-24 -24 0 -1325 0 -1324 31 -26 31 -26
280 0 280 0 29 29 29 29 0 759 c0 417 5 803 10 857 24 249 107 409 245 476 63
30 168 33 237 7 99 -38 167 -153 188 -317 5 -43 10 -443 10 -928 l0 -854 29
-29 29 -29 276 0 c151 0 286 4 300 10 14 5 32 23 41 41 15 28 16 121 12 1012
-4 1017 -6 1046 -49 1230 -64 276 -261 462 -538 506 -76 13 -193 12 -268 0z"/>
<path d="M9416 4814 l-26 -27 0 -222 0 -223 31 -26 31 -26 444 0 c244 0 444
-3 444 -6 0 -3 -222 -323 -492 -712 -271 -389 -503 -727 -515 -752 -34 -69
-44 -167 -41 -398 3 -196 4 -213 24 -239 31 -42 64 -41 165 6 118 55 300 115
427 141 390 79 820 27 1181 -141 46 -21 93 -39 105 -39 34 0 64 27 76 68 13
49 13 377 -1 441 -15 70 -39 96 -138 145 -211 106 -432 158 -739 174 l-143 7
466 665 c256 366 476 685 488 710 19 39 22 65 25 194 5 181 -2 231 -33 262
l-24 24 -864 0 -864 0 -27 -26z"/>
<path d="M22983 4814 c-20 -20 -24 -32 -20 -58 3 -18 242 -619 530 -1334 l525
-1301 -38 -103 c-111 -306 -165 -415 -244 -494 -88 -88 -143 -107 -306 -108
-69 -1 -158 2 -198 7 -69 7 -74 6 -97 -17 -24 -24 -25 -31 -25 -151 0 -191 8
-202 177 -241 115 -27 359 -25 466 4 104 28 183 72 261 144 155 141 263 336
426 768 34 91 291 756 572 1479 280 722 512 1328 515 1346 4 27 0 39 -20 59
l-26 26 -191 0 c-206 0 -245 -7 -273 -52 -8 -12 -178 -499 -378 -1080 -200
-582 -366 -1055 -369 -1050 -4 4 -177 480 -384 1057 -208 578 -384 1061 -393
1073 -28 45 -67 52 -283 52 l-201 0 -26 -26z"/>
</g>
</svg>
